<svg width="48" height="48" viewBox="0 0 48 48" fill="none" xmlns="http://www.w3.org/2000/svg">
<path d="M18.66 23H23C25.3869 23 27.6761 23.9482 29.364 25.636C31.0518 27.3239 32 29.6131 32 32H17.998L18 34H34V32C33.9937 29.8719 33.3788 27.7901 32.228 26H38C39.8905 25.9995 41.7425 26.5349 43.3411 27.5441C44.9397 28.5533 46.2195 29.995 47.032 31.702C42.302 37.944 34.644 42 26 42C20.478 42 15.8 40.82 12 38.75V20.142C14.4332 20.4906 16.7309 21.4766 18.66 23ZM10 38C10 38.5304 9.78929 39.0391 9.41421 39.4142C9.03914 39.7893 8.53043 40 8 40H4C3.46957 40 2.96086 39.7893 2.58579 39.4142C2.21071 39.0391 2 38.5304 2 38V20C2 19.4696 2.21071 18.9609 2.58579 18.5858C2.96086 18.2107 3.46957 18 4 18H8C8.53043 18 9.03914 18.2107 9.41421 18.5858C9.78929 18.9609 10 19.4696 10 20V38ZM36 10C37.5913 10 39.1174 10.6321 40.2426 11.7574C41.3679 12.8826 42 14.4087 42 16C42 17.5913 41.3679 19.1174 40.2426 20.2426C39.1174 21.3679 37.5913 22 36 22C34.4087 22 32.8826 21.3679 31.7574 20.2426C30.6321 19.1174 30 17.5913 30 16C30 14.4087 30.6321 12.8826 31.7574 11.7574C32.8826 10.6321 34.4087 10 36 10ZM22 4C23.5913 4 25.1174 4.63214 26.2426 5.75736C27.3679 6.88258 28 8.4087 28 10C28 11.5913 27.3679 13.1174 26.2426 14.2426C25.1174 15.3679 23.5913 16 22 16C20.4087 16 18.8826 15.3679 17.7574 14.2426C16.6321 13.1174 16 11.5913 16 10C16 8.4087 16.6321 6.88258 17.7574 5.75736C18.8826 4.63214 20.4087 4 22 4Z" fill="#333333"/>
<path d="M18.66 23H23C25.3869 23 27.6761 23.9482 29.364 25.636C31.0518 27.3239 32 29.6131 32 32H17.998L18 34H34V32C33.9937 29.8719 33.3788 27.7901 32.228 26H38C39.8905 25.9995 41.7425 26.5349 43.3411 27.5441C44.9397 28.5533 46.2195 29.995 47.032 31.702C42.302 37.944 34.644 42 26 42C20.478 42 15.8 40.82 12 38.75V20.142C14.4332 20.4906 16.7309 21.4766 18.66 23ZM10 38C10 38.5304 9.78929 39.0391 9.41421 39.4142C9.03914 39.7893 8.53043 40 8 40H4C3.46957 40 2.96086 39.7893 2.58579 39.4142C2.21071 39.0391 2 38.5304 2 38V20C2 19.4696 2.21071 18.9609 2.58579 18.5858C2.96086 18.2107 3.46957 18 4 18H8C8.53043 18 9.03914 18.2107 9.41421 18.5858C9.78929 18.9609 10 19.4696 10 20V38ZM36 10C37.5913 10 39.1174 10.6321 40.2426 11.7574C41.3679 12.8826 42 14.4087 42 16C42 17.5913 41.3679 19.1174 40.2426 20.2426C39.1174 21.3679 37.5913 22 36 22C34.4087 22 32.8826 21.3679 31.7574 20.2426C30.6321 19.1174 30 17.5913 30 16C30 14.4087 30.6321 12.8826 31.7574 11.7574C32.8826 10.6321 34.4087 10 36 10ZM22 4C23.5913 4 25.1174 4.63214 26.2426 5.75736C27.3679 6.88258 28 8.4087 28 10C28 11.5913 27.3679 13.1174 26.2426 14.2426C25.1174 15.3679 23.5913 16 22 16C20.4087 16 18.8826 15.3679 17.7574 14.2426C16.6321 13.1174 16 11.5913 16 10C16 8.4087 16.6321 6.88258 17.7574 5.75736C18.8826 4.63214 20.4087 4 22 4Z" fill="url(#paint0_linear_6_9)"/>
<defs>
<linearGradient id="paint0_linear_6_9" x1="2" y1="4" x2="47" y2="42" gradientUnits="userSpaceOnUse">
<stop stop-color="#033075"/>
<stop offset="1" stop-color="#DA5151"/>
</linearGradient>
</defs>
</svg>
